/* XPM */
static char *_66fee7c332244d2d0e8b0251c7758b9UGqBt6JHp7PXULbp[] = {
/* columns rows colors chars-per-pixel */
"50 50 138 2 ",
"   c #3C2300",
".  c #593500",
"X  c #5E3800",
"o  c #673D00",
"O  c #6A3F00",
"+  c #004107",
"@  c #014E01",
"#  c #06490A",
"$  c #015200",
"%  c #025E00",
"&  c #0B5A0D",
"*  c #0D5A11",
"=  c #265E00",
"-  c #056201",
";  c #086602",
":  c #096D07",
">  c #146A00",
",  c #196E01",
"<  c #057702",
"1  c #0E7701",
"2  c #1B7602",
"3  c #147A01",
"4  c #2B6A00",
"5  c #26650A",
"6  c #28660B",
"7  c #2D6C0D",
"8  c #297803",
"9  c #2F720D",
"0  c #31730E",
"q  c #2E6B12",
"w  c #316D10",
"e  c #3A6E1F",
"r  c #327411",
"t  c #3B7516",
"y  c #377814",
"u  c #3C7A16",
"i  c #37761A",
"p  c #3C731D",
"a  c #377819",
"s  c #3D7A1A",
"d  c #3E7421",
"f  c #3E7822",
"g  c #6B4000",
"h  c #754600",
"j  c #40771F",
"k  c #427D1B",
"l  c #417621",
"z  c #457C22",
"x  c #497E22",
"c  c #9E5E00",
"v  c #A26100",
"b  c #B36C01",
"n  c #218100",
"m  c #3A850D",
"M  c #458D01",
"N  c #46811C",
"B  c #49821E",
"V  c #55861E",
"C  c #5B8B1C",
"Z  c #649A00",
"A  c #76B500",
"S  c #468126",
"D  c #4C8424",
"F  c #4F8824",
"G  c #4A8528",
"H  c #4E8828",
"J  c #518724",
"K  c #5B8221",
"L  c #538A25",
"P  c #5C8C25",
"I  c #538D2A",
"U  c #588F28",
"Y  c #5D9127",
"T  c #5D9923",
"R  c #56912C",
"E  c #5B932A",
"W  c #5C992A",
"Q  c #599630",
"!  c #5C9833",
"~  c #638D24",
"^  c #6A8E22",
"/  c #649326",
"(  c #6C9325",
")  c #619D25",
"_  c #6F9927",
"`  c #649629",
"'  c #639B2D",
"]  c #69992B",
"[  c #709A27",
"{  c #709D29",
"}  c #649D32",
"|  c #689F33",
" . c #67A32E",
".. c #6AA32E",
"X. c #74A32B",
"o. c #73AA2F",
"O. c #66A133",
"+. c #6BA334",
"@. c #6BA335",
"#. c #6AA535",
"$. c #6BA832",
"%. c #6FAA32",
"&. c #6FA837",
"*. c #6BA539",
"=. c #6EA83A",
"-. c #7BA634",
";. c #70AC31",
":. c #72AD32",
">. c #75AF32",
",. c #71AA36",
"<. c #72AB39",
"1. c #73AC3A",
"2. c #75AE3B",
"3. c #70AB3C",
"4. c #76AF3C",
"5. c #77B233",
"6. c #7AB635",
"7. c #77B03C",
"8. c #76B03E",
"9. c #79B23E",
"0. c #7BB33E",
"q. c #7BB43F",
"w. c #7FBB3D",
"e. c #7BB642",
"r. c #7DB640",
"t. c #7FB942",
"y. c #80BA3F",
"u. c #81BD40",
"i. c #84BF42",
"p. c #83BD44",
"a. c #84BE46",
"s. c #85C143",
"d. c #88C245",
"f. c #89C348",
"g. c #8AC44A",
"h. c #8CC64A",
"j. c #8EC84C",
"k. c #94CE4F",
/* pixels */
"L L L L L L S ! g.&.L L 2.f.' J L L N 9 N D e q 0 F L L L L L L L L L L L L L L L L L L L L L L 4.k.",
"L L L L L L S Q u.@.L L } 3.<.' U @.E 0 k J z s u s B L L L L | @.U L L L D x J F x F L L S F ' ,.4.",
"L L L E U L S R >.' L L D I e.2.E r.#.w k L L L F r u F L U E r.q.U L U E z p D z e S U L l z $.' L ",
"L L E 9.1.L S L _ / L L L L R O.:.@.F 7 k L L L L B u y B } t.<.E U L E r.E r z s r N L L S z x F L ",
"L L U =.8.@.I J ~ P J S F L S E o.Y k y B F x F L L u 7 Z < < U x L L ' i. .y a a y B E @.E z d s N ",
"L U I G } a.@.L L L D p z L S L ( P L + @ J l x L L < , A A n Z d F L E 5. .F r y S F @.a.@.F S y 7 ",
"L } 8.E I } 8.<.I L S r k L S L ^ P > $ $ r < m < < A A n < A Z Z 4 S Y { ` F 0 r G ' %.@.E F S t 5 ",
"L <.h.} S G 8.y.E L F y u N S % @ @ $ = % % < < < , < Z , A n 4 Z 4 Z A P P F 0 r F ....L E } G t w ",
"L <.f.} S G $.:.U L L J u r + + 3 * $ 3 % r r < < < Z Z Z 1 1 1 n n < < < Z Z A t L ( / U 9.r.E F F ",
"L @.w.' J F L L L x z L u % @ > $ 3 % % % % % % r r m < Z n n 4 Z < A Z Z Z A n n L L ] 4.2.@.U L L ",
"L ' o.U F L p p J j p F + + # $ % = = = % : % r r r < < n n n n < Z n 4 Z , Z , A n J O.d.@.J L L L ",
"L / ( z z F y y F u r % + @ @ $ % % = % % > : % % % < < < < < < n < A 4 n n Z n Z L L ' 6.' L L L L ",
"L ~ ^ t i L N u u y @ + @ # * * $ % 3 = % : % : % : m r r r % % r n < n n < < < J U @.,. .Y L L L L ",
"L ~ ~ u y F L N 9 a % * > * @ * # 3 % = = % % % : m m r m r m % % < 4 m A n A n n U q.9.I L L L L L ",
"L L L F k y B B 9 + + @ # * @ @ # % 4 = % 3 : % % < < < < % r r r r n Z Z Z n Z < n A A L L L D S S ",
"k B L U k 7 k N $ + + * * > > @ > % 4 % $ = $ % % m m % m % , Z Z m r < Z Z < Z < A A n L F F D D D ",
"9 u F L k w k B + + @ # $ @ # % $ = $ $ % 3 # 2 = % % % m % < n n r r < < , A < < n n L L D D L L L ",
"N u y F J B J J B + @ # * @ # $ $ > @ # # # # @ @ % = % % = r < < r n < Z A n Z A Z Z F D F L L L L ",
"' F y k F L L L S x + @ # @ * > @ # # * @ * * $ > # > 3 $ % % 4 < r , 4 4 , n 4 n 4 n Z S F L S x x ",
"6. .F r y L L S p e + + @ @ * > > + + > @ > # > @ # $ = $ r 4 9 < 4 4 Z < A Z < Z Z n n A F D p e e ",
"X.] F 7 r J k u z x S L + * @ @ > + $ $ $ * * > @ # # # # > 8 r r m 4 < Z < n n < Z Z < < n y f z x ",
"^ P L N N N y y S S D + + + * $ $ % % $ $ $ > @ * # * @ > @ @ > r r Z < , < < < Z Z Z < Z y y S L L ",
"L J E q.O.r k S p r y @ % + + $ $ % > % $ > $ @ * @ @ @ @ > = r r 4 < 4 n < , < Z < < Z n A < L L L ",
"L J E w. .0 N J z k u @ % + * # > > $ = % = = $ * * # @ + $ $ 4 , < 4 n 4 < Z n n n < < n < < L L L ",
"L L U o.T 0 k U E E F @ + + - # # + > # = : $ > $ @ @ > * 4 % r r r < Z n < < < < 4 Z , n < I L L L ",
"L L U ( V 7 k } p.@.@ % % @ @ # > > # @ : % % % 2 $ $ % = : m % r r < A n < Z Z Z , n n A A e.E L L ",
"L L L P V k B @.j.- % + + @ @ - # - # # # $ % : : = = = : * r r m < Z Z A n 4 < A n n Z A ' 9.<.E L ",
"L L L L L J J } a.@ + + * * # * > # - # @ @ @ % % r r % * 4 r r < Z 4 4 4 n n n < 4 4 A Z L } f.<.L ",
"L L L L S l S U ' + + % > # # @ > # # @ - > % , 4 , 4 > > r > m m , r < < Z Z n 4 4 < , L J } g.<.L ",
"x F L B j l D L F + % @ # @ # # # # + @ > @ $ , , , 4 4 Z Z > r r > m r m m r 4 n < n A Z L ' u.@.L ",
"e z F r y L L F S % @ @ @ @ * # # > + # $ # $ % > = = = > 4 , Z < r m m r m 4 < < < A 9.U F E 5.' L ",
"x k y k B L L F % % + @ + - # > # * > # * # # # $ % , : * = 8 = 8 , r % m r r 8 r r r ' L z x _ / L ",
"L s 7 B U L F F D F @ @ + @ # @ # # @ @ @ - * @ - % $ % = % % % % : % % m % m , m m E J L z l K P L ",
"L s 7 B L L D D L L L + + + @ # @ @ * # # # # @ @ # # # > # 8 $ $ = = $ % m m m M 8 U L L L S p x L ",
"L S k F F H O.*.U L L + + + @ + # # $ $ # * - > + * @ * * > ; # @ , > @ @ @ @ 8 8 % L L L L J z k u ",
"L F F L F G e.a.E F F % % + + + + + * @ # # # + @ @ @ @ * # @ @ # $ - @ + + + E L L E E L L L L u 7 ",
"L k r B F G e.p.U z l F t 7 B + + + + * @ $ # # # % % # # $ & & & * * + + / ( U L U q.9.U L L L y 6 ",
"L k 9 k E *.1.' N j x L B k F L E # # + + + + - % % * 3 $ * @ @ @ k z F L P P L L E a.p.U J L L k t ",
"F k r s | g.@.N 0 k L L L L E U U :.) 0 k + # + # # # # 2 # >.` L L L L L L L L L U 9.r.E U L L L L ",
"r u B z } h.@.k 9 a D L L E q.<.U ( C 0 N B 0 W       + . g ( P L L L L L L L L L L E @.p.} L L L L ",
"6 y U E #.2.' k 7 i S L J E f.r.U P V u s k u W   g   . O g -.` L L L L L F z z D L J ' s.@.J L ' &.",
"6 y U %...U L N w i D L L ' p.4.U L L J y r F L   c g   g g a.} L L L J F z e e z L L ` 5.` L E 2.g.",
"5 y L R I L L F B D F L @.r.@.E L L L L r w F L   c g v b g } I F L k r r k S S F L J P [ Y E q.1.} ",
"r j F D F L L L L L L L 1.i.E J L L L L r t ' E   c   c g h F S S N u r r N L L E @.@.] ~ L ' s.@.J ",
"J D S F L L L L L U U L  .5.E L L L L L r k t.<.    g c g c   F N 0 k L L L L L @.f.h.9.U J E 5. .L ",
"L F z z x L z z L @.2.E / { U L L k k J B F } 8.. b X v . g c   . 7 s E 9.| U 1.8.@.@.} U L Y { / L ",
"L F S l j B j z E 8.9.E P ~ P F N y u L L U     o g c   c           k E r.,.' q.<.L J J D S V ~ P L ",
"L L L J k r k E :. .E L L L L k r N L                         L L   J     ..:.' U L L S p r y J L L ",
"L L L U k 7 k ` X./ L L L L L k 7 N U L J     <.U { ] L g F L L L L L L L ` X.U L L L F z k u u B L ",
"L L L L k 7 k P ( ~ L L L L L k 7 k L L L } f.<.P ^ ~ L L L L L L L L L L ~ ( P L L L L L L B 0 k L "
};
