/* XPM */
static char *result[] = {
/* columns rows colors chars-per-pixel */
"50 50 216 2 ",
"   c #020201",
".  c #070B03",
"X  c #090D04",
"o  c #070808",
"O  c #0A0B0B",
"+  c #0B1305",
"@  c #0D1707",
"#  c #0F1708",
"$  c #121C09",
"%  c #131414",
"&  c #181D17",
"*  c #1B1C1B",
"=  c #0F2205",
"-  c #15240A",
";  c #16270B",
":  c #1B2A0C",
">  c #1D300D",
",  c #1D3B0A",
"<  c #1F2916",
"1  c #233E0E",
"2  c #243415",
"3  c #253E12",
"4  c #1F2524",
"5  c #232525",
"6  c #222827",
"7  c #252B2A",
"8  c #2A2C2B",
"9  c #2C3527",
"0  c #343B2B",
"q  c #2E3434",
"w  c #343434",
"e  c #343D3B",
"r  c #3D3D3D",
"t  c #1F430C",
"y  c #25490E",
"u  c #26590D",
"i  c #264211",
"p  c #2A4512",
"a  c #2B4B17",
"s  c #2D4A15",
"d  c #324913",
"f  c #2B5314",
"g  c #2D5114",
"h  c #2D5C13",
"j  c #315415",
"k  c #36551A",
"l  c #37591A",
"z  c #365B1A",
"x  c #3A5B1B",
"c  c #27650A",
"v  c #2D6C0D",
"b  c #2F720D",
"n  c #30720E",
"m  c #2E6B12",
"M  c #316D11",
"N  c #366419",
"B  c #3B621B",
"V  c #3C6D1E",
"C  c #347412",
"Z  c #377717",
"A  c #3B7515",
"S  c #3C7A16",
"D  c #3C731D",
"F  c #3D7A1A",
"G  c #364C26",
"H  c #3E5C23",
"J  c #3A4539",
"K  c #3E7521",
"L  c #41651F",
"P  c #426E1D",
"I  c #46731E",
"U  c #427D1B",
"Y  c #415236",
"T  c #456823",
"R  c #417621",
"E  c #4B7423",
"W  c #457C22",
"Q  c #497E22",
"!  c #4E7229",
"~  c #527826",
"^  c #3B4442",
"/  c #3B4844",
"(  c #434343",
")  c #454A44",
"_  c #4E4E4E",
"`  c #4D5348",
"'  c #485652",
"]  c #4B5956",
"[  c #545454",
"{  c #5A5C5C",
"}  c #57625B",
"|  c #5D6564",
" . c #676767",
".. c #60716B",
"X. c #667471",
"o. c #697875",
"O. c #777977",
"+. c #46811C",
"@. c #49831F",
"#. c #54851D",
"$. c #468126",
"%. c #4C8423",
"&. c #4F8824",
"*. c #4A8528",
"=. c #4F892A",
"-. c #518624",
";. c #5B8221",
":. c #538A25",
">. c #5B8C24",
",. c #558E2A",
"<. c #588F29",
"1. c #5C9126",
"2. c #5B932A",
"3. c #59942A",
"4. c #5F8633",
"5. c #5B9732",
"6. c #638D24",
"7. c #6A8E22",
"8. c #639326",
"9. c #6B9225",
"0. c #6F9927",
"q. c #639629",
"w. c #639C2D",
"e. c #6B992A",
"r. c #709A27",
"t. c #719E29",
"y. c #659732",
"u. c #649D32",
"i. c #67A32D",
"p. c #6AA42E",
"a. c #73A32C",
"s. c #73AA2F",
"d. c #65A134",
"f. c #6BA334",
"g. c #6EA934",
"h. c #6EA83A",
"j. c #72AD33",
"k. c #77AA38",
"l. c #73AC3A",
"z. c #77B233",
"x. c #77B13E",
"c. c #7BB33E",
"v. c #7DB839",
"b. c #7DB641",
"n. c #7FB842",
"m. c #73807D",
"M. c #80BA3F",
"N. c #82BC44",
"B. c #87BF48",
"V. c #86C144",
"C. c #8AC449",
"Z. c #94CE4F",
"A. c #748884",
"S. c #7C928D",
"D. c #7E9591",
"F. c gray52",
"G. c #8D8E8E",
"H. c #92958F",
"J. c #859B95",
"K. c #999A98",
"L. c #89A39D",
"P. c #8DA6A1",
"I. c #96AAA6",
"U. c #91AEA8",
"Y. c #96B4AE",
"T. c #9BB6B0",
"R. c #A6A8A6",
"E. c #ACADAD",
"W. c #A7B7B4",
"Q. c #B2B3B2",
"!. c #B7B8B7",
"~. c #BABABA",
"^. c #9FC0BA",
"/. c #A0C1BB",
"(. c #AAC3BE",
"). c #ABC8C2",
"_. c #AACCC5",
"`. c #ACCFC8",
"'. c #B4CCC7",
"]. c #AED2CB",
"[. c #B4D4CD",
"{. c #BAD3CE",
"}. c #B5D7D0",
"|. c #BAD7D1",
" X c #B5D9D2",
".X c #BCDBD5",
"XX c #BEDED8",
"oX c #BDE3DC",
"OX c #C5C6C5",
"+X c #C7C9C7",
"@X c #CBCBCB",
"#X c #C3D2CF",
"$X c #C7D8D4",
"%X c #C1DCD7",
"&X c #C3DED9",
"*X c #D3D3D3",
"=X c #D4DAD9",
"-X c #DCDCDC",
";X c #C4E2DC",
":X c #CAE2DD",
">X c #D4E2DF",
",X c #CAE6E1",
"<X c #C1E8E0",
"1X c #CCE9E4",
"2X c #D6E3E1",
"3X c #DDE4E3",
"4X c #D2EAE6",
"5X c #DCEBE8",
"6X c #D7F1EC",
"7X c #E3E4E4",
"8X c #E8E7E7",
"9X c #E6E8E7",
"0X c #E5ECEA",
"qX c #ECECEC",
"wX c #EFF1F1",
"eX c #F1F1F1",
/* pixels */
":.:.:.:.:.:.$.5.C.j.:.:.l.C.5.-.:.:.+.n +.%.V m n @.:.:.:.:.:.:.:.:.:.:.:.:.:.:.:.:.:.:.:.:.-.:.x.Z.",
":.:.:.-.-.:.$.5.M.f.:.:.u.h.h.u.:.f.3.n U -.W F S U @.:.:.:.-.f.f.>.&.:.-.%.Q &.*.Q -.:.:.Q %.w.j.x.",
":.:.:.<.,.:.$.3.j.w.:.:.$.=.b.l.w.c.f.b U :.:.:.@.S S -.-.,.2.v.c.2.:.:.2.Q D %.W V %.:.:.K Q f.w.:.",
":.:.2.x.l.:.$.:.0.8.:.:.:.:.5.u.s.f.%.v I :.,.,.-.@.S n j x ! y.2.-.z k ! *.M W F n +.:.:.$.W Q %.:.",
":.:.,.h.x.f.,.*.6.>.:.Q %.&.W 2.s.1.@.A @.%.W *.:.:.F u : X - T W P > + - :.S A Z S +.2.f.2.W K F +.",
":.:.,.*.u.N.f.:.:.:.%.D W :.*.:.9.>.:.-.:.-.R Q :.:.F z :   + j K P :   # >.%.n C $.%.f.N.f.*.$.S v ",
":.u.x.2.=.u.b.h.:.:.%.M U =.*.>.9.>.-.:.j.b.b.,.R I ,.~ 9 * 5 z V l 2 * 5 ~ U M C $.u.j.f.2.*.$.C c ",
"-.k.C.u.$.$.b.v.1.:.%.S S @.$.:.7.>.,.u.b.b.b.,.h ; : G K.OXQ.) $ 9 H.OXQ.0 @ = u *.f.p.:.2.u.*.D M ",
":.g.C.u.$.*.g.j.:.:.:.&.S C @.>.:.-.u.B.d.=.2.S h .   w ~.eX-X)   8 E.eX=X8   X y -.9.9.>.c.n.2.&.&.",
":.f.v.w.-.&.:.:.:.%.W -.F n @.:.:.i.f.d.,.%.&.C u .   q !.eX=X)   8 E.wX=X8   + h -.>.w.x.l.d.:.:.:.",
":.w.s.1.*.:.D D *.U D %.A n @.:.1.s.p.*.&.:.&.D u .   q W.6X$X(   6 R.6X$X8   # x -.-.i.V.f.&.:.:.:.",
":.6.9.W U -.C S %.S C W Z M @.:.:.9.8.:.:.=.*.W N X   8 W.6X|.^   7 I.4X{.8   # x -.-.w.v.w.-.:.:.:.",
":.6.7.A A -.+.S U S K $.U U %.:.:.>.>.:.-.%.$.$.V X   7 W.6X{.^   6 I.1X{.8   # z :.f.j.i.2.:.:.:.:.",
":.6.7.S S @.:.@.b Z *.<.3.:.2.<.:.:.:.:.2.3.$.&.T X   q U.1X[.^   6 P.,X'.6   # z >.c.c.>.:.:.:.:.:.",
":.:.>.&.+.C @.@.b Z ,.b.f.2.b.k.:.-.:.:.l.x.,.%.E +   7 U.<X_.^   6 L.oX).6   + z >.r.0.:.:.:.$.$.$.",
"U @.:.:.S b +.+.v Z ,.c.u.1.k.k.:.-.:.1.n.V.1.%.E +   7 U.<X_.e   6 L.oX).7   # z %.>.>.:.:.*.$.$.*.",
"b S #.:.U v +.@.m D -.8.8.>.9.8.:.:.-.:.x.N.2.-.I +   7 U.oX]...r { T.1X|.| ( ) H z N Q :.$.*.:.:.:.",
"+.S S @.-.@.%.&.@.%.:.>.e.p.8.:.:.1.@.S :.h.N.u.P X   7 U.oXoX}.'.{.3XqX0X*X*X!._ @ $ z $.-.:.:.:.:.",
"i.@.S +.@.:.:.:.%.Q %.:.p.z.2.:.*.@.S S U q.x.h.~ .   7 U.oXoX,X4X6XqXeXwXeXeX*X_   . z *.*.*.%.Q Q ",
"v.i.-.n S :.:.%.D V D &.p.z.1.%.U m C +.Q -.-.w.;.& % e Y.oX;X1X4X4X0XeXwXeXeX*X{ & & l R Q U D V V ",
"a.0.@.n C &.+.C W Q Q :.e.r.>.h ; = - ; > > : : G D.P.Y. X,X1X5X8XqXeXeXeXeXeX8XOXQ.R.` - - f K W W ",
"7.1.-.+.+.@.S S %.@.%.:.>.7.:.g +     .         q _.oXoX,X1X4X0XeXqXeXqXeXeXeXeXeXeX7X[   . t $.=.:.",
":.:.1.c.i.C U Q D C C %.:.#.%.h # O O O O O O O q `.oXoX1X1X4XqXeXqX8X8X-XqXeXqXeXeX7X[     a &.:.:.",
":.:.3.v.p.n +.-.W U S S N 3 3 J O.F.F.F.F.F.A.o.D..X;X,X5X5X0XqXeX*XG.{  .@XeXeXeXeX7X[     a -.:.:.",
":.:.:.j.1.n U 1.1.2.%.C y X X [ OX7X-X7X3X>X X}. X,X,X4X9XqXqXqXqX@X[ O * Q.eXeXeXeX7X[     s :.:.:.",
":.:.>.0.#.b U w.N.u.-.@.y . X [ @X8X8X9X8X3XXX.XXX,X,X4X0XqXqXqXqX@X_ o % E.eXqXqXeX-X[     T <.:.:.",
":.:.:.>.~ U V T 4.! z z G / / m.#X2X3X7X8X3X:X:X;X<X;X,X9XqXqXqXqX@X_   % E.eXqXeXeX7X[     T g.5.:.",
":.:.:.:.#.%.j X X X X o ' ^._.].}..X:X7X8X8X9X9X3XXX.X&X5X8XqXqXqX@X_ o % Q.eXqXqXqX-X[   o l C.j.:.",
":.-.:.:.@.V s           ] `. X X X X&X7X8X8X8X9X5XXX X;X3XqX8XqXqX@X_ o % E.eXqXqXeX-X[   . k C.l.-.",
"U -.:.A N N G 8 8 *     ' `.}.}. X.X&X2X3X7X7X9X3X&X;X&X2X3X5X9X8X*XO.w ) ~.qXqXqXqX-X[     k M.f.:.",
"V Q @.y + $ } ~.Q. .%   ' `. X X&X&XXX.X.X&X3X7X8X7X9X2X,XXX&X3XqX8X*X@X*X7XqXqXqXqX-X[   . k z.w.:.",
"Q U S 1   .  .-X*XF.%   ' _. X X&X&XXX X}.&X3X8X8X9X9X3X%X X.X3X8X8XqXqXqX8X8XqXqXeX-X[     p r.8.:.",
":.F v i   o { +XOXO.6 % } `. X.X%X&X&X|. X&X3X7X7X8X8X3X&XXXXX3X8X8X9X9X8X=X*X*X*X*XOX` + + y #.>.:.",
":.U v 1     4 ) _  .A.A.U. X.X.X&X%X&X.X.X&X%X&X&X7X8X7X-X2X2X&X&X&X2X4X#X ._ _ [ _ ` Y x x P P Q :.",
":.@.U i         O ] T.].}.%X.X&X%X%X&X&X%X.X}.}..X7X7X7X8X7X7X&X XXX%X,X).8       o X x -.:.-.W F S ",
":.-.@.p         O ] ).].}.%X.X.X|.%X.X.X%X.X}. X.X7X7X7X7X7X3X&X X XXX%X(.8         X L :.:.:.:.S v ",
":.+.C N i i >   O ] /.].[.}.{.T.A.X.X.X.X.S.). X.X7X7X7X7X7X7X&X X_.D.o.| G d p 3 i H y.>.-.:.:.A v ",
":.U b U ,.u.H   O ] /.].`.].`.A.*       o e Y. X.X-X7X7X7X7X3X$X XY./ o # E >.:.-.,.N.N.,.-.:.:.U A ",
"@.S n U u.B.H   O ] T.}.`.[.`.A.*         e Y.].|.7X-X7X-X7X-X$X XT./   + P :.-.-.>.b.b.5.:.:.:.:.:.",
"C +.@.$.d.B.l   O ] (.{.{.[.[.J.) w w w e ] S.J.P.R.E.E.E.E.E.{..XW.| e J x V P Q :.1.g.N.p.:.:.:.:.",
"c S :.3.f.l.k   O { OX=X=X=X=X@X~.~.~.~.~.G.e 5 5 8 5 8 8 5 r R.3X-X@X~.R.9 + ; z :.-.i.V.p.-.-.w.h.",
"c A 1.g.p.-.s   O { OX-X=X-X-X-X-X-X-X-X-XK.4               * I.7X-X7X7XOX8   . g -.-.q.z.w.:.1.l.C.",
"c A :.3.,.%.s   O [ ~.@X@X@X@X@X@X@X@X@X@XH.5       . . . X < K.*X*X@X*X!.5   X j Q %.>.r.>.3.b.l.i.",
"C F &.$.%.-.s     * e ( r r r r ( r ( r ( 8 O   + x z L ~ E x J r ( ( Y r O     $ : 2 E 9.:.w.V.g.-.",
":.*.$.-.:.-.s                                   = Q :.:.7.6.T :                     + ! :.-.w.z.p.-.",
":.*.W W Q -.i                                   : ;.:.-.:.:.W ;                     . B :.:.1.r.8.:.",
":.*.$.K W U h 3 p x x d p d p p i , , i i p s x ! 2.:.:.$.*.%.z 1 , 3 s x k s H k i s P %.$.#.7.>.:.",
":.:.&.:.U C U q.j.w.<.:.:.,.:.W C +.:.:.-.w.V.l.2.j.p.:.$.$.:.:.-.%.-.:.2.p.j.w.>.:.-.%.D C C &.:.:.",
":.:.:.:.+.v U q.a.8.:.:.:.:.:.U v +.,.:.-.u.C.l.>.t.e.-.&.&.:.:.:.:.:.:.:.q.a.>.-.:.:.-.U U U S @.-.",
":.:.:.:.U v U >.7.6.:.:.:.:.:.F v U :.:.:.w.C.l.:.7.6.:.:.:.:.:.:.:.:.:.:.6.9.:.:.:.:.:.:.:.@.n U :."
};
