/* XPM */
static char *_348b578c972427eb133a38aa69f92effazNCYM1d0uj868o[] = {
/* columns rows colors chars-per-pixel */
"50 50 170 2 ",
"   c #020202",
".  c #090502",
"X  c #050902",
"o  c #0C0C0C",
"O  c #150A02",
"+  c #1A0C03",
"@  c #140E08",
"#  c #141414",
"$  c #181B15",
"%  c #1C1C1C",
"&  c #351A07",
"*  c #3D1F0A",
"=  c #163506",
"-  c #1F3C0C",
";  c #22370F",
":  c #223E0D",
">  c #3A2513",
",  c #25381B",
"<  c #202020",
"1  c #282D24",
"2  c gray17",
"3  c #2D3527",
"4  c #3A312A",
"5  c #343434",
"6  c #3C3C3C",
"7  c #442209",
"8  c #4B250A",
"9  c #562B0B",
"0  c #5F2F0D",
"q  c #532E11",
"w  c #6A340E",
"e  c #70380F",
"r  c #6A3812",
"t  c #753D13",
"y  c #7D3E11",
"u  c #5A3F24",
"i  c #1F4A09",
"p  c #24410F",
"a  c #234C0B",
"s  c #25510C",
"d  c #274412",
"f  c #294412",
"g  c #2D4915",
"h  c #2E401D",
"j  c #304A17",
"k  c #334F18",
"l  c #2C5411",
"z  c #345616",
"x  c #335C15",
"c  c #345518",
"v  c #3A571D",
"b  c #365B18",
"n  c #3A5C1C",
"m  c #26650A",
"M  c #28660B",
"N  c #2D6C0D",
"B  c #2F710D",
"V  c #31720E",
"C  c #2E6B12",
"Z  c #316D11",
"A  c #3C621B",
"S  c #3A6D1E",
"D  c #347413",
"F  c #3B7516",
"G  c #377814",
"H  c #3C7A16",
"J  c #377519",
"K  c #3C731D",
"L  c #377819",
"P  c #3D7A1A",
"I  c #37422C",
"U  c #3E7421",
"Y  c #3F7A23",
"T  c #456218",
"R  c #426A1E",
"E  c #4E6C1C",
"W  c #40771F",
"Q  c #4B731F",
"!  c #427C1B",
"~  c #644628",
"^  c #724722",
"/  c #7B4D25",
"(  c #7E512A",
")  c #417621",
"_  c #457C22",
"`  c #497E23",
"'  c #527B23",
"]  c #567D2C",
"[  c #414141",
"{  c #4A4847",
"}  c #4C4C4C",
"|  c #545454",
" . c #5B5B5B",
".. c gray39",
"X. c DimGray",
"o. c #8B4513",
"O. c #8E4A19",
"+. c #80562F",
"@. c #985E2E",
"#. c #835B34",
"$. c #9B6434",
"%. c #9E6A3A",
"&. c #A17040",
"*. c #46811C",
"=. c #49821E",
"-. c #54851D",
";. c #468125",
":. c #4C8424",
">. c #4F8824",
",. c #4A8528",
"<. c #4E8828",
"1. c #518724",
"2. c #5D8321",
"3. c #538A25",
"4. c #5B8C25",
"5. c #5A852C",
"6. c #548D2A",
"7. c #588F29",
"8. c #5B9127",
"9. c #5D9923",
"0. c #56912C",
"q. c #5B932A",
"w. c #5F982B",
"e. c #599630",
"r. c #5C9833",
"t. c #638D24",
"y. c #6A8E23",
"u. c #639326",
"i. c #6B9325",
"p. c #6F9927",
"a. c #659628",
"s. c #639B2D",
"d. c #6A9A2B",
"f. c #709A27",
"g. c #719D29",
"h. c #679635",
"j. c #649D32",
"k. c #689F33",
"l. c #67A22D",
"z. c #6AA32E",
"x. c #73A32B",
"c. c #73AA2F",
"v. c #66A133",
"b. c #69A133",
"n. c #6BA434",
"m. c #6EA934",
"M. c #6BA539",
"N. c #6EA83A",
"B. c #72AC33",
"V. c #72AA39",
"C. c #72AB3A",
"Z. c #75AE3B",
"A. c #76AF3C",
"S. c #7DAE3A",
"D. c #77B133",
"F. c #7AB635",
"G. c #77B03C",
"H. c #77B13E",
"J. c #7AB23E",
"K. c #7BB43F",
"L. c #7FBB3D",
"P. c #7CB641",
"I. c #7FB942",
"U. c #80BB3F",
"Y. c #83BD44",
"T. c #85C143",
"R. c #88C245",
"E. c #8BC449",
"W. c #8EC84C",
"Q. c #94CE4F",
/* pixels */
"3.3.3.3.3.3.;.r.E.N.3.3.Z.E.s.1.3.3.*.B *.:.S C V >.3.3.3.3.3.3.3.3.3.3.3.3.3.3.3.3.3.3.3.3.3.3.A.Q.",
"3.3.3.3.3.3.;.e.Y.n.3.3.j.C.C.s.7.n.q.B ! 1._ P H P =.3.3.3.3.j.b.7.3.3.3.;.` 1.>.` >.3.3.;.>.s.B.A.",
"3.3.3.8.7.3.;.0.B.s.3.3.:.6.P.Z.w.P.n.Z ! 3.3.3.>.G H >.3.7.w.P.K.7.3.7.8._ K :._ S ;.7.3.) _ m.s.3.",
"3.3.8.J.C.3.;.3.p.u.3.3.3.3.0.v.B.b.>.N ! 3.3.3.3.=.H G =.j.I.C.w.7.3.w.P.q.D _ P D *.3.3.;._ ` >.3.",
"3.3.7.N.H.n.6.1.t.4.1.;.>.3.;.8.c.8.! G =.>.` >.3.3.H N q.A.J.7.` 3.3.s.Y.l.G L L G =.8.n.q._ U P *.",
"3.7.6.,.j.Y.n.3.3.3.:.K _ 3.;.3.i.4.3.3.7.1.) ` 3.3.! G Z.K.6.) U >.3.w.D.z.>.D G ;.>.b.Y.b.>.;.G N ",
"3.j.H.q.6.j.H.C.6.3.;.D ! 3.;.3.y.4.3.3.5.h.$   # #   h 5.` 3._ U ) ;.8.g.a.>.V D ,.s.m.b.8.>.;.D m ",
"3.C.E.j.;.,.H.U.8.3.>.H H =.;.3.t.4.c j # 5 ..5 } 6 6 | 5   f S _ U W =.4.4.;.V D >.z.z.3.w.j.<.P Z ",
"3.C.E.j.;.,.m.B.7.3.3.1.H G :.3.3.z [ } 6 | X...5 [ X.X.5 } } 3 _ ;.G G _ 6.>.Z F 3.i.u.7.J.P.8.>.>.",
"3.n.L.s.1.>.3.3.3.` _ 3.H V =.3.R 5 X.X...% . . . . .   [ X.X...# ` D N Y j.N.>.! 3.4.d.A.Z.b.7.3.3.",
"3.s.c.7.>.3.K K 1.W K >.H V =.b 1 5 ..[ 4 & %.o.o.%.o.w > [ [ 5 ..1 x D ;.C.E.s.3.3.1.v.R.b.1.3.3.3.",
"3.u.i.` _ >.G G >.H D _ J Z =.X X.| 2 ~ w o.&.o.o.%.o.o.$.9 7 6 X. .: >.3.Z.E.s.3.3.3.s.F.s.3.3.3.3.",
"3.t.y.F F 3.*.H H G L ;.! ! ;  .X.5 w &.o.o.&.o.o.%.o.o.$.o.o.*  . .  A 3.N.U.w.1.7.n.B.l.8.3.3.3.3.",
"3.t.t.H G >.3.*.B L ,.8.7.3.; { ..4 t &.o.o.&.o.o.%.o.o.$.o.o.q { 1 6 b 3.s.B.8.1.7.K.J.6.3.3.3.3.3.",
"3.3.3.>.! G =.=.B J 6.P.n.` I 5 2 7 o.&.o.o.&.o.o.%.o.o.$.o.o.@.@ X.| , ;.4.p.7.3.7.p.p.3.3.3.:.;.;.",
"! =.3.7.! N ! *.N J 6.S.b.A [ X.O y o.&.o.o.&.o.o.%.o.o.$.o.o.@.t % X.< _ 4.y.7.>.>.4.4.3.>.>.:.:.:.",
"B H >.3.! Z ! =.Z J 1.i.u.A [ X.+ o.o.&.o.o.&.o.o.%.o.o.$.o.o.@.O.o X.< _ 4.y.4.>.;.3.3.3.:.:.3.3.3.",
"*.H G >.1.=.>.1.=.>.3.4.s.Q 2 [ + o.o.&.o.o.&.o.o.%.o.o.$.o.o.@.O.X [ # ;.3.4.>.:.>.3.>.:.>.3.3.3.3.",
"s.>.G ! >.3.3.3.;.` ;.3.z.' 2 { + o.o.&.o.o.&.o.o.%.o.o.$.o.o.@.O.X { # 3.3.3.;.:.3.3.>.;.>.3.;.` ` ",
"F.z.>.G G 3.3.;.K S U >.z.' [ X.+ o.o.&.o.o.&.o.o.%.o.o.$.o.o.@.O.o X.< 8.3.3.;.>.7.3.>.;.>.:.K S S ",
"x.d.>.N D 1.! H _ ` ;.3.a.E [ X.+ o.o.&.o.o.&.o.o.%.o.o.$.o.w ^ r o X.< 7.3.3.>.j.J.w.3.>.! G Y _ ` ",
"y.4.3.*.*.*.G G ;.;.:.3.4.T % 2 + o.o.&.o.o.&.o.o.%.o.o.$.o.$ 2  .  2 o 3.3.7.8.N.P.s.>.=.G G ;.3.3.",
"3.1.8.K.v.G ! ;.K D G >.3.A 5 | + o.o.&.o.o.&.o.o.%.o.o.$.o.X o % X | $ 3.3.8.B.m.8.7.*.D L ;.3.3.3.",
"3.1.8.L.l.V *.1._ ! H H =.A [ X.+ o.o.&.o.o.&.o.o.%.o.o.$.o.o.@.O.o X.< 3.3.7.x.d.3.3.*.B L ;.3.3.3.",
"3.3.7.c.9.V ! 7.w.8.>.G H b [ X.+ o.o.&.o.o.&.o.o.%.o.o.$.o.o.@.O.o X.< *.>.3.t.t.3.3.*.B ;.6.3.3.3.",
"3.3.7.p.-.N ! j.Y.n.3.>.H s # < + o.o.&.o.o.&.o.o.%.o.o.$.o.o.@.O.  < X Z ! 3.4.3.3.3.! N j.P.8.3.3.",
"3.3.3.4.-.! =.b.W.C.3.3.H i [ X.+ o.o.&.o.o.&.o.o.%.o.o.$.o.o.@.O.o X.< Z G 3.3.3.3.3.=.! s.J.C.w.3.",
"3.3.3.3.3.1.1.j.Y.n.7.3.P a [ X.+ o.&   . w &.o.o.%.o.o.$.o.o.@.O.o X.< P F 3.3.3.3.3.3.3.3.j.E.C.3.",
"3.3.3.3.;.) ;.7.s.m.z.7.>.x [ X.+ o.8 u 7 e &.o.o.%.o.o.$.o.o.@.O.o X.< 3.;.3.3.3.3.3.3.3.1.j.E.C.3.",
"` >.3.=.W ) :.3.>.d.c.7.3.A X o + o.+ &.9 0 &.o.o.%.o.o.$.o.o.@.O.  o   z.8.3.3.1.3.j.j.7.3.s.Y.n.3.",
"S _ >.G G 3.3.>.;.4.i.3.3.n [ X.+ o.o.@ * o.&.o.o.%.o.o.$.o.o.@.O.o X.< B.l.3.7.7.8.P.J.7.>.w.D.s.3.",
"` ! G ! =.3.3.>.;.1.4.>.>.A [ X.+ o.o.&.o.o.&.o.o.%.o.o.$.o.o.@.O.o X.< g.u.7.Z.Y.P.C.s.3._ ` p.u.3.",
"3.P N =.7.3.>.>.:.>.>.;.;.x [ X.+ o.o.&.o.o.&.o.o.%.o.o.$.o.o.@.O.o X.< t.a.n.P.Y.P.w.1.3._ ) 2.4.3.",
"3.P N =.3.3.:.:.3.3.3.3.P s     + o.o.&.o.o.&.o.o.%.o.o.$.o.o.@.O.      >.C.Y.j.6.7.7.3.3.3.;.K ` 3.",
"3.;.! >.>.<.v.M.7.3.3.3.H i [ X.+ o.o.&.o.o.&.o.o.%.o.o.$.o.o.@.O.o X.< >.B.L.w.>.3.3.3.3.3.1._ ! H ",
"3.>.>.3.>.,.P.Y.8.>.>.3.F i [ X.+ o.o.&.o.o.&.o.o.%.o.o.$.o.o.@.O.o X.< 3.d.c.8.3.3.w.w.3.3.3.3.H N ",
"3.! G =.>.,.P.Y.7._ ) >.F i [ X.+ o.o.&.o.o.&.o.o.%.o.o.$.o.o.@.O.o X.< 3.u.p.7.3.7.K.J.7.3.3.3.G M ",
"3.! B ! q.M.C.s.*.W ` 3.=.l o # + o.o.&.o.o.&.o.o.%.o.o.$.o.e / t   #   3.4.4.3.3.8.Y.Y.7.1.3.3.! P ",
">.! D P k.E.n.*.V ! 3.3.3.A [ X.+ o.o.&.o.o.&.o.o.%.o.o.$.o.# 2 | o X.< 3.3.3.3.3.7.J.P.w.7.3.3.3.3.",
"D H =._ j.E.n.! B L :.3.3.A [ X.+ o.o.&.o.o.&.o.o.%.o.o.$.o.X # 2 o X.< 3.3.3.3.3.3.8.n.Y.j.3.3.3.3.",
"M G 7.q.n.Z.s.! N J ;.3.1.A 6 ..+ o.o.&.o.o.&.o.o.%.o.o.$.o.o.@.O.o ..% 3.>._ _ :.3.1.s.T.b.1.3.s.N.",
"M G 7.m.z.7.3.*.Z J :.3.3.R # < + o.o.&.o.o.&.o.o.%.o.o.$.o.o.@.O.  < X >._ S S _ 3.3.s.D.s.3.8.Z.E.",
"m G 3.0.6.3.3.>.=.:.>.3.n.] [ X.+ o.o.&.o.o.&.o.o.%.o.o.$.o.o.@.O.o X.< G ! ;.;.>.3.3.4.f.8.w.K.C.j.",
"D W >.:.>.3.3.3.3.3.3.3.C.5.[ X.+ o.o.&.o.o.&.o.o.%.o.o.$.o.o.@.O.o X.< G *.3.3.8.b.n.d.t.4.s.T.n.1.",
"1.:.;.>.3.3.3.3.3.7.7.3.z.' 5 | O e e #.e e #.e e +.e e ( e e / t X | $ 3.3.3.3.n.E.E.J.7.1.w.D.l.3.",
"3.>._ _ ` 3._ _ 3.n.Z.8.u.2.g f f : : f p d k v v g f f f f d f : = - g J.k.7.C.H.n.n.j.7.3.8.g.u.3.",
"3.>.;.) W =.W _ w.H.J.8.4.t.4.>.*.G H 3.3.7.s.A.P.s.8.3.;.:.3.3.;.D ! w.P.B.s.K.C.3.1.1.:.;.-.t.4.3.",
"3.3.3.1.! D ! w.B.z.8.3.3.3.3.! D *.3.3.3.s.Y.C.w.B.z.3.;.:.3.3.3.>.1.3.8.z.B.s.7.3.3.;.K D G 1.3.3.",
"3.3.3.7.! N ! u.x.u.3.3.3.3.3.! N *.7.3.1.j.E.C.7.g.d.3.>.>.3.3.3.3.3.3.3.a.x.7.3.3.3.>._ ! H H =.3.",
"3.3.3.3.! N ! 4.i.t.3.3.3.3.3.! N ! 3.3.3.j.E.C.4.y.t.3.3.3.3.3.3.3.3.3.3.t.i.4.3.3.3.3.3.3.=.V ! 3."
};
