/* XPM */
static char *_35acd1a87ac4d26ba3f8410345c31d3kaopozGfWALAvt0o[] = {
/* columns rows colors chars-per-pixel */
"50 50 118 2 ",
"   c #26650A",
".  c #28660B",
"X  c #2D6C0D",
"o  c #2E710D",
"O  c #31730E",
"+  c #2E6B12",
"@  c #326E12",
"#  c #346F19",
"$  c #3A6E1F",
"%  c #357413",
"&  c #3B7516",
"*  c #377814",
"=  c #3C7A16",
"-  c #36741A",
";  c #3B741C",
":  c #377819",
">  c #3D7A1A",
",  c #3D7421",
"<  c #3E7A21",
"1  c #40771F",
"2  c #427D1B",
"3  c #417621",
"4  c #457C22",
"5  c #497E22",
"6  c #46811C",
"7  c #49821E",
"8  c #54841E",
"9  c #5B8B1C",
"0  c #468125",
"q  c #4C8524",
"w  c #4F8924",
"e  c #4A8528",
"r  c #4F8929",
"t  c #518724",
"y  c #5B8221",
"u  c #538A25",
"i  c #5B8C25",
"p  c #558E2A",
"a  c #588F29",
"s  c #569427",
"d  c #5B9127",
"f  c #5D9923",
"g  c #56912C",
"h  c #5B932A",
"j  c #5D992A",
"k  c #5A9630",
"l  c #5E9933",
"z  c #638D24",
"x  c #6A8E23",
"c  c #649326",
"v  c #6B9325",
"b  c #619D25",
"n  c #6E9927",
"m  c #659629",
"M  c #629B2D",
"N  c #6A9A2A",
"B  c #709A27",
"V  c #719D29",
"C  c #649D32",
"Z  c #689F33",
"A  c #67A22D",
"S  c #6AA32E",
"D  c #6FA92F",
"F  c #72A32C",
"G  c #74A72E",
"H  c #73AA2F",
"J  c #64A032",
"K  c #66A134",
"L  c #6AA331",
"P  c #6BA432",
"I  c #6CA730",
"U  c #6BA335",
"Y  c #6AA535",
"T  c #6CA535",
"R  c #6EA932",
"E  c #6FA837",
"W  c #6BA539",
"Q  c #6EA83A",
"!  c #73A634",
"~  c #7BA634",
"^  c #70AC31",
"/  c #72AC32",
"(  c #75AF32",
")  c #72AB37",
"_  c #72AB39",
"`  c #73AC3A",
"'  c #75AE3B",
"]  c #70AB3C",
"[  c #75AF3E",
"{  c #7DAE39",
"}  c #76B133",
"|  c #76B233",
" . c #79B535",
".. c #77B03C",
"X. c #76B03E",
"o. c #79B23E",
"O. c #7AB33E",
"+. c #7BB43F",
"@. c #7FBB3D",
"#. c #7BB642",
"$. c #7CB540",
"%. c #7FB842",
"&. c #80BA3F",
"*. c #81BD3F",
"=. c #81BA43",
"-. c #81BD40",
";. c #84BF42",
":. c #80BB45",
">. c #83BC44",
",. c #84BE46",
"<. c #87C244",
"1. c #88C245",
"2. c #87C148",
"3. c #89C348",
"4. c #8AC44A",
"5. c #8CC64A",
"6. c #8EC84C",
"7. c #94CE4F",
/* pixels */
"u u u u u u 0 l 4.E u u ' 3.M t u u 6 o 6 q $ + O q u u u u u u u u u u u u u u u u u u u u u u [ 7.",
"u u u u u u 0 k -.P u u C ] _ M p U h o 2 t 4 > = > 7 u u u u C L p u u u q 5 t q 5 q u u 0 q M ) [ ",
"u u u d a u 0 g ( M u u q p $.' j #.Y @ 2 u u u q * = q u p h #.+.a u p d 5 ; q 5 $ 0 p u 3 4 I M u ",
"u u d o.` u 0 u n c u u u u g J / L w X 2 u u u u 7 = * 7 C %._ h p u h #.h % 4 > % 6 u u 0 3 5 q u ",
"u u p Q X.U p t z i t 0 q u 0 d G d 2 * 7 q 5 q u u = X h [ o.a 5 u u M ;.A * : : * 7 h U h 4 , > 6 ",
"u p p e C ,.U u u u q ; 4 u 0 u v i u u p t 3 5 u u 2 * ' +.p 3 , q u j | S q % * 0 w L ,.L q 0 * X ",
"u C X.h u C X._ p u 0 % 2 u 0 u x i u u T %.[ p 4 q M Q T M u 4 , 3 0 d V m q O % e M R L d q 0 %   ",
"u _ 5.C 0 e X.&.d u q = = 7 0 u z i a C [ :.=.p - q ) <.M t u q 4 , 1 7 i i q O % q S S u h C e > @ ",
"u _ 3.C 0 e I / p u u t = * q u u u C ,.K r p > % q S | j u u u q 0 * * 0 u q @ & u v c a o.#.d q q ",
"u P @.M t q u u u 5 5 u = O 7 u p M P K p q t * X 0 m V d u u u u q % X < C _ q 2 u i N [ ' L p u u ",
"u M H a q u ; ; t 1 ; q = O 7 u p G S q q u u > % q i z i d M u q u > % 0 ] 4.M u u t J 1.L t u u u ",
"u c v 5 4 q * * q = % 4 - X 7 u u v v u u u 0 4 5 u u u u L :.p 3 t t q u ' 3.M u u u M  .M u u u u ",
"u z x & ; u 6 = = * : 0 2 2 q u u i i u u q 0 0 q u u p M ) _ 5 # t p u u E &.h t p U ) A d u u u u ",
"u z z = * q u 6 o : e d a u d d u u u u d p q q p d p a H S q % % q u q u M ( h t a @.o.p u u u u u ",
"u u u q 2 * 7 7 o - p #.T d $._ p u u p ' o.p q j #.Q a v i , , 0 t 4 3 0 i v a u p n n u u u q 0 0 ",
"2 7 u p 2 X 2 6 X - p { L d { ! u u u p =.<.d q j -.` u z 8 # , p U q # 4 i x a w q i i u w q q q q ",
"o = w u 2 @ 2 7 @ ; t v c a v z u u t u X.=.h u d ( S u t 2 % > l 2.s o 4 i x i q 0 u u u q q u u u ",
"6 = * q t 7 q t 7 q u i M S c i u u 7 * u T #.J a n m t = * 7 q Z 5.s X 0 u i q q q u w q q u u u u ",
"M w * 2 q u u u 0 5 0 u S | j t q 7 = * 2 j o.) m c i q O * u u M o.j 6 t u u 0 q u u q 0 q u 0 5 5 ",
" .S q * * u u 0 ; $ , q S | j q 0 * * q p p a S / d u q @ % u u u a S D d u u 0 q p u q 0 q q ; $ $ ",
"F N q X % t 2 = 5 5 0 u m V a 6 * > 7 u T _ p m n 5 5 q ; ; q u u u N V a u u q C o.M u q 2 * < 4 5 ",
"x i u 6 6 6 * * 0 0 q u i z i 2 o 6 p C o.o.d i i ; 1 q ; 5 M d u u z z u u p d E #.M q 7 * * 0 u u ",
"u t d +.L * 2 0 ; % * q u u u 2 o > l ,.T p u u q * > q * w >.L u u u u u u d / I d p 6 % : 0 u u u ",
"u t d @.A O 6 t 4 2 = = 7 u u 2 X ; l *.J q t u w 6 = = : w Q [ T p 2 > u u a F N u u 6 o : 0 u u u ",
"u u a H f O 2 a h d q * = q u 2 @ > h ( m p h d u u 2 o < 0 p =.-.a * @ 6 q u z z u u 6 o 0 p u u u ",
"u u p v 8 X 2 C =.U u q = * 7 t q q i v i M =.T u u 2 o > 0 p =.-.d q 2 @ 2 u i u u u 2 X C $.d u u ",
"u u u i 8 2 7 L 6._ u u = X 7 u u u u i u j ` [ T a = X > 0 p X.o.d C M @ * u u u u u 7 2 M o._ h u ",
"u u u u u t t C ,.T p u > @ 0 a d p q 0 q u p _ =.M 2 @ < q p D D d o.#.> & u u u u u u u u C 3._ u ",
"u u u u 0 3 0 a M R S a q 7 t L #.M q 0 q u u d C / j 0 q u p v v a $.,.u 0 u u u u u u u t C 4._ u ",
"5 q u 7 1 3 q u q N G a u u u C o.` C q q u u u a G N p u q 6 i z u U X.S d u u t u C C p u M -.T u ",
"$ 4 q * * u u q 0 i v u u u u u d #.+.d u u u u u v z u u 2 O 6 u u u j ( A u p p h #.o.p q j | M u ",
"5 2 * 2 7 u u q 0 t i q q u u u u k K R j u u 5 4 i a u u 2 X 2 u u u a V c a ' =.#._ M u 4 5 n m u ",
"u > X 7 p u q q q q u q 0 7 t u q 0 d H m u u 4 , 5 q u p 2 & 6 u u 0 7 z m U #.,.#.h t u 4 3 y i u ",
"u > X 7 u u q q u u u u > * 7 q 0 q i v i u u q 4 , 4 u u u t u p u * @ q ` ,.C p a p u u u 0 ; 5 u ",
"u 0 2 q q r K W p u u u = X 7 q 0 q u i i u u u q 3 ; = q u p T L 2 % > q ) @.j q t u u u u t 5 2 = ",
"u w q u q e #.,.d q q u & X 7 w q h j u u u u u u q ; o 7 a M #.Y @ - 0 u N H h u u j j u u u u = X ",
"u 2 * 7 q e $.>.a 4 3 q & X 7 u p o.o.p u u u u u u > X 2 U >.T q X - 0 u c v a u a +.o.p u u u * . ",
"u 2 o 2 h W ` M 6 1 5 u 7 2 q u d @.| 6 7 q 2 7 u u 7 2 q L -.M 7 2 5 q u i i u u d ,.=.p t u u 2 > ",
"q 2 % > Z 4.U 6 O 2 u u u u d a p / b O 2 7 O 6 h h a u u m ( m u u u u u u u u u a o.#.h p u u u u ",
"% = 7 5 C 5.U 2 o : q u u d +._ p v 9 O 6 7 O j <.<.T u u d v i u u u u u u u u u u d T =.C u u u u ",
". * p h Y ' M 2 X - 0 u t h 3.#.p i 8 = > 2 = j +.+.[ T a c ~ c u u u u u q 5 5 q u t M <.L t u M E ",
". * p R S p u 6 @ ; q u u M >.[ p u u t * * q u u u T ,.C L ,.C t u u t w 4 $ $ 4 u u m | m u d ' 4.",
"  * u g p u u q 7 q w u U #.T j u u u u % @ q u u u d J / R C p q u 2 * * 2 0 0 q u u i B d h +.` C ",
"% 1 q q q u u u u u u u ` ;.h t u u u u % % M j u u u p G S q 0 0 6 = * * 6 u u h L U N z i M <.T t ",
"t q 0 q u u u u u p p u S | j u u u u u % 2 %._ p u u u v z 0 q 6 O 2 u u u u u T 3.5.o.a t j | A u ",
"u q 4 4 5 u 5 4 u T ' d m V a u u 2 2 t 7 q C X.' d u u u t q u 2 X > h o.Z a ` X.T T C p u d V c u ",
"u w 0 3 1 7 1 4 j X.o.d i z i w 6 * = u u p M [ #.M d u 0 q u u 7 % 2 h #.) M @._ u t t q 0 8 z i u ",
"u u u t 2 % 2 j / S d u u u u 2 % 6 u u u M >._ j / S u 0 q u u u q t u d S / M p u u 0 ; % * t u u ",
"u u u p 2 X 2 c F c u u u u u 2 X 6 p u t C 5._ p V N u q q u u u u u u u m F a u u u q 5 2 = = 7 u ",
"u u u u 2 X 2 i v z u u u u u 2 X 2 u u u C 3._ i x z u u u u u u u u u u z v i u u u u u u 7 O 2 u "
};
