/* XPM */
static char *result[] = {
/* columns rows colors chars-per-pixel */
"50 50 157 2 ",
"   c black",
".  c #0E1907",
"X  c #3D1400",
"o  c #1E350F",
"O  c #1F3D11",
"+  c #232A01",
"@  c #382A08",
"#  c #2B3302",
"$  c #24390E",
"%  c #333E03",
"&  c #243C11",
"*  c #451700",
"=  c #4A1900",
"-  c #5A1E00",
";  c #46360A",
":  c #493209",
">  c #642100",
",  c #6B2300",
"<  c #762700",
"1  c #7B2900",
"2  c #783513",
"3  c #314007",
"4  c #3C4903",
"5  c #264111",
"6  c #2A4413",
"7  c #2E4D15",
"8  c #304A13",
"9  c #355119",
"0  c #3A551E",
"q  c #26650A",
"w  c #28660B",
"e  c #2D6C0D",
"r  c #2F710D",
"t  c #31730E",
"y  c #2E6B12",
"u  c #326E11",
"i  c #3A6D1E",
"p  c #357412",
"a  c #3A7516",
"s  c #377814",
"d  c #3C7A15",
"f  c #36741A",
"g  c #3C741C",
"h  c #377819",
"j  c #3D7A1A",
"k  c #3D7421",
"l  c #3E7822",
"z  c #4C5C05",
"x  c #4B551E",
"c  c #426C1C",
"v  c #4F6F1D",
"b  c #40771F",
"n  c #427D1B",
"m  c #657907",
"M  c #6A7F07",
"N  c #4A6927",
"B  c #417621",
"V  c #457C22",
"C  c #497E22",
"Z  c #862D00",
"A  c #87340B",
"S  c #903000",
"D  c #983200",
"F  c #873C16",
"G  c #A23500",
"H  c #AD3900",
"J  c #B23B00",
"K  c #BD3F00",
"L  c #A55C02",
"P  c #BB5100",
"I  c #9A6003",
"U  c #C24000",
"Y  c #CC4300",
"T  c #D54700",
"R  c #E74D00",
"E  c #EB4E00",
"W  c #F45100",
"Q  c #FF5500",
"!  c #FF5B0A",
"~  c #E75912",
"^  c #FF6214",
"/  c #FF6518",
"(  c #FF712B",
")  c #46811C",
"_  c #49821E",
"`  c #55861E",
"'  c #5B8B1C",
"]  c #708707",
"[  c #738A07",
"{  c #768E08",
"}  c #7C901E",
"|  c #468125",
" . c #4C8424",
".. c #4F8824",
"X. c #4A8628",
"o. c #4F8929",
"O. c #518724",
"+. c #5B8221",
"@. c #538A25",
"#. c #5B8C25",
"$. c #58812D",
"%. c #558E2A",
"&. c #588F29",
"*. c #5D9126",
"=. c #5D9923",
"-. c #56912D",
";. c #5B932A",
":. c #5D992A",
">. c #5C9833",
",. c #638D24",
"<. c #6A8E22",
"1. c #639326",
"2. c #6B9325",
"3. c #6F9927",
"4. c #649629",
"5. c #639B2D",
"6. c #699B2B",
"7. c #7E9220",
"8. c #709A27",
"9. c #719D29",
"0. c #608A31",
"q. c #649D32",
"w. c #689F33",
"e. c #67A32D",
"r. c #6AA32E",
"t. c #73A42C",
"y. c #73AA2F",
"u. c #65A134",
"i. c #6BA434",
"p. c #6EA934",
"a. c #6BA539",
"s. c #6FA939",
"d. c #77A634",
"f. c #72AC33",
"g. c #73AC3A",
"h. c #7DAE39",
"j. c #76B233",
"k. c #79B434",
"l. c #77B03D",
"z. c #7AB33E",
"x. c #7FBB3D",
"c. c #7CB641",
"v. c #7FB942",
"b. c #839D09",
"n. c #8AA319",
"m. c #829624",
"M. c #8BA125",
"N. c #90A724",
"B. c #91A826",
"V. c #93AA2A",
"C. c #80BA3F",
"Z. c #83BD44",
"A. c #A0B442",
"S. c #86C145",
"D. c #8AC449",
"F. c #8EC84C",
"G. c #94CE4F",
/* pixels */
"@.@.@.@.@.@.| >.D.s.@.@.l.S.q...@.@.n r n o.i u t  .@.@.@.@.@.@.@.@.@.@.@.@.@.@.@.@.@.@.@.@.@.@.g.G.",
"@.@.@.O.@.@.| -.x.i.@.@.q.s.s.q.@.i.;.r n O.b n d d _ @.@.@.@.u.i.@.@.@.@.| C O...V O.@.@.C  .6.f.l.",
"@.@.@.&.&.@.X.-.y.6.@.@.X.%.c.g.:.c.a.e n @.@.@...p d ` @.@.:.z.c.&.O.@.*.V g | C i | @.@.l V p.5.#.",
"@.@.;.l.g.@.| @.3.*.@.#.....-.u.f.r.o.e b @.@.%.@._ n s _ w.c.f.4.@.O.:.z.;.p V j t _ @.@.| B V o.@.",
"@.O.&.s.g.a.%.o.,.#...|  .@.| ;.t.*.n a n @.C  .@.@.d e ;.l.l.;.C O.O.5.S.e.a d h a  .;.u.;.V k h ) ",
"@.@.%.X.q.Z.i.@.@.@...i V @.| @.3.#.@.@.#.@.k V @.@.n h g.z.&.B b o.O.;.k.i.      |         o.| s e ",
"@.q.l.;.o.q.g.g.&.@._ u j @.X.+.<.#.O.@.s.c.c.0.B O.5.s.a.4.@.V l l         A.A.A.  A.A.A.  o.| p q ",
"@.g.F.q.| | l.Z.@.#.O.d d | | &.<.@.&.w.c.c.c.%.i  .f.S.5.o.@.i 5 O 4 +   x B.M.m.x A.A.A.  5.X.j u ",
"@.f.D.q.| | p.f.&.@.@...d p  .@.@.@.q.Z.q.o.-.d t _ r.k.:.O.@.7     b.z   A.b.[ m A.A.A.A.  c.;.o.O.",
"O.i.x.:...o.@.@.@.C V O.d t _ @.@.5.p.u.%...@.a e  .4.9.#.@.  # m m b.{ m b.m } A.b.b.z   g.w.@.O.@.",
"@.6.y.&.O.@.j a @.b g  .d t _ @.*.y.u.X.X.@...j p | ,.<.#.;.  # m b.m m m m A.V.b.b.m m m   ..@.@.@.",
"@.2.2.b B ..s s ..a p V f e _ @.@.2.2.@.@.@.| V V @.#.i 5 9   # m ] m m m m.N.n.b.[ m M [   @.@.@.@.",
"@.,.<.c s ` ) n d a j | V j | #.@.#.#.#.O...C X.o.@.@.7       # m m m m m A.b.b.b.m m ] b.  @.@.@.@.",
"@.#.,.d d _ @.) r h X.-.;.@.;.&.@.@.@.@.;.;.| X.@.    < Q Q Q E T m m 7.A.b.b.{ m m b.b.b.  @.@.@.@.",
"@.&.#...n t _ _ r h -.c.i.*.z.g.@.@...@.g.l.-.5   Q ( ( ( ( ( / Q Q T L m b.m m m b.m 4   @.@.| | | ",
"n _ @.@.) e ) ) r f %.h.i.&.h.d.@.@.@.@.Z.S.8 : > Q ( ( ( ( ( / Q Q T P I [ m m m [ % 3 5 o. .X.X.| ",
"r d ..@.n u n _ u g @.2.1.*.2.,.@.@.@.@.l.Z.  , T Q ( ( ( ( ( / Q Q T T T m m m m m   $ @.X.| ..@.@.",
"_ d d ` O._ O.O.n  .@.@.6.r.*.#.@.&._ s @.i.  1 Q Q Q Q Q Q Q Q Q Q Q E T m   # m   @.o.| X.@.#.@.@.",
"5.` s n _ @.@.@. .C C O.r.k.;...@._ n s )   Q Q Q Q Q Q Q T T T T Q Q W T Z       @.@.o.| o.O. .C C ",
"k.e.O.t d @.@._ k i j ..e.j.;. ._ t s i 7 < ^ ^ ^ ^ ^ ! Q R J H H R Q E T Z   . & @.@...C o. .i i i ",
"t.6._ t t @.) d C C C @.4.9.#._ s d _ 6   Q ( ( ( ( ( ^ Q Q Z Z Z T Q E T Z   $ q.l.:.@.o.n h l V C ",
"2.#.@.) ) ) s s C  ._ O.#.,.#.d r n   , T Q Q Q Q ( Q Q Q Q Q Y Z Z T J Z Z   & s.c.5..._ p s | ..@.",
"#.@.*.l.i.s n C g u s O.@.#.@.n r j   1 Q Q Q Q Q Q Q Q Q Q T T T Z Z Z Z Z   6 r.;.@.) t h X.@.@.@.",
"..@.;.C.r.t ) @.b n n d _ #.&.n e O 1 K Q Q E E E E Q Q Q Q T T T Z Z Z Z * 5 v 6.#.@.) t h | @.@.@.",
"@.@.@.y.=.t n &.;.&...p n _ @.n p   Q Q Q Q T T T T Q Q Q Q T T T Z Z Z Z   #.,.,.@.@.n r | %.@.@.@.",
"@.@.#.3.` e n 5.Z.i.O.| n s _ 5   ( ( ( ( Q Q U Z Z T T T Q T J Z Z Z =   b #.&.&.@.@.n e q.c.&.@.@.",
"@.@.@.#.` n n i.F.f...@.d e   F ( Q Q ^ ( Q Q Q Q Z Z G T T Z Z Z Z   6 p a @.@.@.@.@._ j 5.l.g.;.@.",
"@.@.@.@.O.O.O.q.Z.s.@.#.d u   A / Q Q ! ^ Q Q W E H Z D J H Z , * * 0 $.a a @.@.@.@.@.@.@.@.5.S.g.@.",
"@.@.@.@.C B  .&.q.p.r.&..._   Z Q Q Q Q Q Q Q E T T Z Z Z Z Z =     c.S.#.| @.@.@.@.@.@.@...5.D.g.@.",
"n  .#._ b b O.O.O.6.t.&.O.  Q Q Q T T R Q Q Q E T T Z Z Z     $ ,.@.i.g.5.:.@.@.O.@.q.5.#.O.5.Z.a.@.",
"k V _ s d O.O.O.| #.2.&   ( ( ^ Q Q Z Z Z T Q R T Z Z *   n t _ @.@.@.:.y.r.@.@.&.*.c.z.&.O.:.j.6.@.",
"C n s n  .@.@.O.C O.7 : > ( ( ^ Q Q K G Z J E Y H = = @ 5 n e ) @.@.@.*.9.1.&.g.Z.c.g.5.&.b C 3.1.@.",
"@.j e _ @.@.O.X.X.O.  < T ( ( ^ Q Q Q U Z Z T H Z     5 @._ p n @.@._ ` ,.1.i.c.Z.c.;.@.@.B V +.#.@.",
"@.n e _ @.%.X.X.O.@.  S Q Q Q Q Q T T H Z Z       k V @.@...O.@.&.O.a u ` g.Z.q.&.&.&.@.@.@.C B V #.",
".. .b O.X.X.>.c.@.  Q Q Q T Q Q Q T T H Z   @.@.X.B g d  .@.@.i.i.j f j o.p.x.:...O.O.@.@.@.O.V n s ",
"@.` _ #.X.V c.0.7 1 / ! Q T R W Q T , - * 5 @.@.@.o.h r _ ;.q.c.i.y f C @.6.y.*.O.@.*.;.@.@.@.@.a e ",
"@.) p _ X.X.c.0   Q ( ^ Q T T R Q T       @.@.@.@.@.j e n w.Z.p.| e g X.@.1.3.#.O.&.c.g.&.@.#.@.j w ",
"@.d r ) -.a.  S Q ( Q Q Q T Z X     j.) _ ..d _ @.O.n n O.i.S.5.n n V O.@.@.,.@.o.;.Z.Z.&.O.@.@.n j ",
"..n t j u.D.  , T Q Q R T Z   8 #.y.e.t ) _ t _ ;.;.&.@.@.5.f.4.@.@.@.@.@.@.@.@.O.&.c.c.4.@.@.@.@.@.",
"t n _ | u.N 2 P T R E G , * 0 $.@.2.' t ) _ r :.Z.D.s.@.O.,.3.,.@.@.@.@.@.@.@.@.#.@.;.s.v.q...@.@.O.",
"e a @.;.a.  ( ~ T T T -     D.c.@.#.' d d n d :.c.c.h.i.&.4.d.4.@.@.@.@.@. .V V | @...5.S.r.O.@.5.f.",
"q a &.6   ( Q R T     7 @.5.Z.g.&.@.#...s t ..@.@.@.s.Z.q.i.Z.q.@.@.@.` O.V g i b O.@.5.j.5.@.&.g.F.",
"q a @.$   Q T -   ....@.i.c.i.;.@.@.@.@.s u ` @.@.O.;.u.f.p.q.%.X.@.) t p n | C ..O.o.,.9.*.:.z.g.5.",
"p d X.o   Z , ; 6 @.@.@.g.S.;.O.@.@.@...p p 5.;.@.@.@.@.t.6.o.|  .) d s p n @.#.*.i.u.6.<.+.5.S.s._ ",
"@.X.| o       8 @.@.@.@.r.j.;.@.@.@.@...p n c.g.@.@.@.@.<.,.| O.) r n @.@.@.@.@.i.D.G.l.@...;.k.e.#.",
"@.o.C B C @.V V @.i.g.;.4.8.@.#.@.n n ` _ ..q.l.g.;.@.@.@.O...@.) e d :.l.q.;.g.h.i.i.5.&.@.*.9.1.@.",
"@.o.| l b _ b V :.l.z.;.#.2.#..._ s d O.@.&.5.g.c.5.&.@.| X.O.#.n p n :.c.s.5.z.s.@.O.O.| _ ` ,.#.@.",
"@.@.@.O.n p n *.f.r.@.@.#.@.@.n p n @.@.O.5.Z.g.:.y.e.@.| | @.@.@.O.O.@.*.p.f.:.&.@.@.C g p s @.@.@.",
"@.@.@.@.n e n 4.t.4.o.@.@.@.@.n e n &.@.O.q.D.s.@.9.6.@.o.o.@.@.@.@.@.@.@.4.9.#.O.@.@.O.V b d d _ @.",
"@.@.@.@.n e n #.<.,.O.@.@.@.@.n e n @.@.#.5.D.g.@.<.<.@.@.@.@.@.@.@.@.@.@.,.2.#.@.@.@.@.#.&.) e ) @."
};
