/* XPM */
static char *result[] = {
/* columns rows colors chars-per-pixel */
"50 50 209 2 ",
"   c #010201",
".  c #060A03",
"X  c #090D04",
"o  c #070808",
"O  c #0A0B0B",
"+  c #0B1305",
"@  c #0E1807",
"#  c #111C07",
"$  c #121C0A",
"%  c #131414",
"&  c #161A18",
"*  c #1B1C1B",
"=  c #122407",
"-  c #15240A",
";  c #1A2A0B",
":  c #1D340D",
">  c #1D390C",
",  c #1B211A",
"<  c #223D0E",
"1  c #212B19",
"2  c #243E11",
"3  c #2B381D",
"4  c #1E2321",
"5  c #232524",
"6  c #252927",
"7  c #262C2B",
"8  c #2A2C2B",
"9  c #2D3729",
"0  c #303C23",
"q  c #2E3434",
"w  c #343434",
"e  c #383E34",
"r  c #343D3B",
"t  c #3D3D3D",
"y  c #1D4009",
"u  c #24480D",
"i  c #27510E",
"p  c #264211",
"a  c #2A4412",
"s  c #2D4B14",
"d  c #324B14",
"f  c #275112",
"g  c #2B5313",
"h  c #335316",
"j  c #355519",
"k  c #375718",
"l  c #365C19",
"z  c #3A5C1B",
"x  c #27650A",
"c  c #2D6C0D",
"v  c #2E710D",
"b  c #31720E",
"n  c #2E6711",
"m  c #336D13",
"M  c #346619",
"N  c #3C651B",
"B  c #3C6B1D",
"V  c #347313",
"C  c #3A7516",
"Z  c #3C7A15",
"A  c #3C731C",
"S  c #377818",
"D  c #3D7A1B",
"F  c #2F4B25",
"G  c #3A5727",
"H  c #3A4539",
"J  c #3E7421",
"K  c #3E7922",
"L  c #426E1D",
"P  c #43731D",
"I  c #4E711E",
"U  c #437D1B",
"Y  c #57761E",
"T  c #435335",
"R  c #446323",
"E  c #456D22",
"W  c #407621",
"Q  c #457C23",
"!  c #497E22",
"~  c #537C27",
"^  c #3B4442",
"/  c #3B4844",
"(  c #424343",
")  c #404847",
"_  c #4E4E4E",
"`  c #4B5245",
"'  c #50544C",
"]  c #485652",
"[  c #4B5956",
"{  c #545554",
"}  c #5A5B5A",
"|  c #57635D",
" . c #5E6A66",
".. c #676968",
"X. c #667471",
"o. c #6C7B78",
"O. c #787A78",
"+. c #46811C",
"@. c #49831E",
"#. c #51831F",
"$. c #468125",
"%. c #4C8524",
"&. c #4F8824",
"*. c #4A8528",
"=. c #518724",
"-. c #5B8221",
";. c #538A25",
":. c #5B8C25",
">. c #548D2A",
",. c #598E29",
"<. c #5C9127",
"1. c #5B932A",
"2. c #589429",
"3. c #5A8333",
"4. c #5C9832",
"5. c #638D23",
"6. c #6A8E22",
"7. c #649326",
"8. c #6C9325",
"9. c #6F9927",
"0. c #649628",
"q. c #629B2D",
"w. c #6B992A",
"e. c #719E29",
"r. c #638F33",
"t. c #649D32",
"y. c #679835",
"u. c #6AA32E",
"i. c #69A42E",
"p. c #73A12A",
"a. c #72AA2F",
"s. c #6AA333",
"d. c #6CA637",
"f. c #6EA934",
"g. c #72AC33",
"h. c #73AC3A",
"j. c #79B435",
"k. c #77B13D",
"l. c #7AB23E",
"z. c #7CB641",
"x. c #6C817D",
"c. c #73807D",
"v. c #80BA3F",
"b. c #83BD43",
"n. c #87C245",
"m. c #8BC449",
"M. c #94CE4F",
"N. c #758784",
"B. c #778E89",
"V. c #7C928D",
"C. c gray52",
"Z. c #8D8E8E",
"A. c #859B96",
"S. c #979896",
"D. c #89A39D",
"F. c #9DA09A",
"G. c #8DA7A1",
"H. c #98AAA6",
"J. c #91AEA8",
"K. c #97B3AD",
"L. c #9CB9B3",
"P. c #A6A8A6",
"I. c #ACADAD",
"U. c #A7B6B3",
"Y. c #B3B3B3",
"T. c #B7B8B7",
"R. c #BABABA",
"E. c #9FC0BA",
"W. c #A0C1BB",
"Q. c #ABC3BE",
"!. c #AACCC5",
"~. c #ABCCC5",
"^. c #B6CDC9",
"/. c #AED2CB",
"(. c #B4D4CD",
"). c #B9D3CE",
"_. c #B5D7D0",
"`. c #BBD6D1",
"'. c #B5D9D2",
"]. c #BCDBD5",
"[. c #BEDED8",
"{. c #BDE3DC",
"}. c #C5C6C5",
"|. c #C7C9C7",
" X c #CBCBCB",
".X c #C5D4D1",
"XX c #C1DCD7",
"oX c #C3DED9",
"OX c #CDDFDB",
"+X c #D3D3D3",
"@X c #D4DAD9",
"#X c #DCDCDC",
"$X c #C4E2DC",
"%X c #C9E1DD",
"&X c #CAE6E1",
"*X c #C1E8E0",
"=X c #CCE9E3",
"-X c #D5E3E1",
";X c #DDE4E3",
":X c #D2EAE6",
">X c #DDEBE8",
",X c #D7F1EC",
"<X c #E3E4E4",
"1X c #E8E7E7",
"2X c #E6E8E7",
"3X c #E5ECEA",
"4X c #ECECEC",
"5X c #EFF1F1",
"6X c #F1F1F1",
/* pixels */
";.;.;.;.;.;.Q 4.m.g.=.;.h.n.r.=.;.;.U v U %.B m b %.>.;.;.;.;.;.=.;.;.;.;.;.;.;.;.;.;.;.;.;.;.;.k.M.",
";.;.;.&.;.;.$.4.v.f.;.;.t.h.d.4.,.s.2.v U %.Q D Z Z @.;.;.;.=.i.s.:.;.;.=.$.! =.%.! =.;.;.! %.q.h.h.",
";.;.;.<.>.;.$.>.a.q.;.;.%.>.z.z.0.l.d.c U ;.;.,.%.Z Z #.&.,.1.z.l.2.;.>.<.Q A $.Q A $.:.;.J Q f.q.,.",
";.;.<.k.h.;.$.;.9.7.;.;.! j h J i.f.W y u l ! ;.=.@.Z Z @.i.z.h.1.,.=.1.z.2.V Q D c +.,.;.Q Q ! =.;.",
";.;.>.d.z.d.>.*.5.:.=.$.L $ o : 7.1.h +   ; N %.,.;.Z c <.k.k.>.! ;.=.q.n.i.Z D S S @.<.s.>.$.J D +.",
";.,.>.*.t.b.t.>.=.,.%.A N +   ; Y :.L +   - l ! ;.;.U S k.l.,.W W %.=.1.g.u.@.b V $.&.s.b.d.*.Q S c ",
";.t.l.1.;.t.l.h.>.=.P n M 1 * 3 Y ~ z 5 * 0 3.~ B %.q.d.d.q.;.Q J W %.<.p.0.%.b V $.i.f.s.1.=.$.V x ",
"=.h.m.t.$.$.k.b.:.N ; + 9 Y.}.S.0 # T Y.|.F.H # # B g.n.q.&.;.*.Q A U @.5.:.@.b V *.s.u.;.1.t.*.Z m ",
";.g.n.t.%.*.s.g.,.M +   8 #X6XI.5   ( #X6XR.w   . N u.j.<.=.;.;.%.$.S V Q *.%.m C =.8.8.:.l.l.2.%.&.",
";.s.l.q.=.%.;.>.%.h +   8 @X6XI.5   ) @X6XR.8   . N 0.e.<.=.;.;.,.&.V c K t.g.%.+.;.-.q.k.h.s.:.;.;.",
";.q.a.<.%.;.A Z %.g X   7 .X>XH.5   ) .X5XU.q   . B :.6.:.>.q.;.%.=.U V $.h.m.4.=.;.=.i.m.s.=.;.;.;.",
";.7.8.! U &.S V %.i +   7 `.:XH.4   / '.,XL.8   . B ;.;.=.s.b.>.P =.%.@.&.k.n.t.=.;.;.q.j.q.=.;.;.;.",
";.5.6.P C #.+.U U i +   7 ).:XH.4   ^ ).,XL.8   . L &.;.q.g.g.Q B &.;.,.;.g.v.1.&.,.s.g.u.2.;.;.;.;.",
"=.5.5.Z Z @.;.+.c i +   6 ~.*XG.*   ^ ).=XK.7   X P ,.,.a.u.%.m V %.=.=.;.u.g.1.=.2.l.l.2.=.;.=.;.;.",
",.:.,.@.U b @.+.v i +   6 !.[.D.*   r !.*XJ.7   X r.f.,.8.5.P J $.&.W J Q 1.9.:.;.>.e.w.;.=.;.$.$.$.",
"Z @.;.,.+.v +.+.c f @   7 !.{.D.4   ^ !.*XJ.7   X y.h.;.5.%.m K >.s.%.A W :.6.:.=.=.-.5.,.*.*.%.%.$.",
"b Z =.;.U m C l i F _ _ ..].=XU.| ) X.(.{.J.7   O ,.i.=.=.+.b D 4.n.2.b $.:.8.;.%.*.;.;.;.%.*.;.;.;.",
"+.Z Z @.#.U z # @ ` Y.+X+X3X3X;X).~.(.[.{.J.7   X ~ 7.&.Z Z +.%.t.m.>.c $.;.:.%.%.*.;.=.*.%.%.;.;.;.",
"q.#.Z U @.,.z X   _ +X6X5X5X4X4X:X=X*X$X{.J.7   X I 5.&.b V ;.;.q.l.1.+.=.;.=.$.%.=.;.%.$.*.=.! $.! ",
"j.i.=.b m @.z & * } +X5X5X5X6X4X,X:X=X$X{.K.r O , L Y U n m ! %.#.;.u.a.2.;.=.%.%.,.,.*.*.%.%.A B B ",
"p.w.#.y = - ` P.Y.}.1X6X6X6X4X6X3X3X3X=X&X'.K.G.V.F - - = $ - ; ; 1 I 9.<.;.;.%.4.l.q.&.&.U S K Q Q ",
"8.5.;.i .   { <X6X6X6X6X6X6X6X4X5X6X3X:X=X=X{.{.!.q               + z 5.;.;.;.2.f.z.q.=.@.S S $.;.>.",
";.=.2.R     { <X6X6X6X4X4X<X<X1X4X6X4X=X=X=X{.[./.q O O O O O O O $ k =.#.=.>.a.f.2.,.+.b S $.;.;.;.",
";.=.2.R     { <X6X4X6X6X X..} Z.#X4X4X3X3X:X&X&X[.V.x.x.C.C.C.C.C.O.T : < B :.p.w.=.=.+.v Z $.>.;.;.",
";.;.<.z     { <X6X6X4X6XY.* O { +X4X4X4X4X3X-X&X&X'._.].@X;X<X#X<X|.' o . h :.5.5.;.;.U v $.>.;.;.;.",
";.;.:.k     { #X6X4X4X6XI.%   _ +X4X4X4X4X3X:X&X&X{.'.[.;X3X1X1X1X+X{ o o u =.;.-.;.;.U c t.z.,.;.;.",
";.;.;.d     { <X6X4X4X6XI.%   _ +X4X4X4X4X;X&X$X$X$XOX&X;X1X1X;X-X.Xc./ / F z l l M z A D q.l.h.1.;.",
";.;.;.s     { #X6X4X4X6XY.% o _  X4X4X4X4X>X*X'.[.;X2X2X1X1X1XoX'._.(.~.W.] X X . . X h =.=.q.m.h.;.",
";.;.;.d .   { #X4X4X4X6XI.%   _ +X1X4X4X4X;XoX[.[.;X1X1X1X1X2XXX'.'.'.'./.]           d %.=.t.m.h.;.",
"! =.=.u     { #X4X4X4X4XR.( t O.+X4X1X;X>X-XoXoX$X;X1X1X;X;X-XoX'.'.'.'.~.]     & 8 6 R I L >.v.f.;.",
"B Q %.y     { #X4X4X4X4X1X+X X+X1X4X;XoX[.$X;X;X;X1X1X;XoX].'.oXoXoX'.'.!.]   % ..Y.R.} $ + h j.q.;.",
"$.U Z u     { #X4X4X4X1X4X4X4X4X1X3X;X].'.oX;X1X1X1X1X;XoX'.'.oX$XoX'.'.!.]   & C.+X<X..o   < 9.7.;.",
";.Z c s + + '  X+X+X+X+X#X1X1X3X2X2X-XXX'.OX;X<X<X<X<X-XXX]._.[.oXoX`._.!. .% 4 O.^.}.} o   < ~ :.:.",
";.U c B k j G { } { { { ...X-X-XOX%XOX&X-X-X<X1X<XOXoXoXXX].[.XXoXXX].].`.G.N.o. .{ { 5     < P U =.",
";.@.U #.*.*.E X     o   6 ~.&XoX'.].oX;X1X1X<X1X<X]._.`.XXoXoXXXoXoXXXXXXX_./.E.[ O         a ! U S ",
";.&.#.;.*.*.~ +   o     6 Q.oX[.'._.oX<X<X1X<X<X<X].'._.`.].XXXX`..X].XX[.'./.E.[ O         a ;.Z c ",
";.+.b @.*.*.y.R a < < < a  .o.V.~.'.oX;X1X<X<X<X;X`.'.!.B.X.X.X.X.o.K._.'._./.E.[ O   1 a a N ;.Z x ",
";.U v +.4.d.k.4.U P W =.N @ o ^ L._.oX<X<X<X<X<X#X].'.K.r o   o o & N.!./././.L.[ O   R =.%.=.;.U A ",
"@.U b D s.m.d.+.b U =.=.P O o r L._..X<X<X#X<X#X#X`.(.K.r         & N.!./././.!.[ O   R <.,.;.;.;.;.",
"b U @.$.t.m.d.D v V B L G e r  .~.XX^.I.I.I.I.I.I.G.D.B.] r w w w ) A.)._.).).U.[ O   z l.y.;.;.;.;.",
"x Z ;.2.s.h.y.U c f - # 9 P.R. X@X#XI.t 5 8 6 6 6 5 5 r Z.T.R.R.T.R. X+X@X+X@X}.| O   k v.u.-.;.t.f.",
"x S >.a.i.,.;.@.m f +   6 }.<X<X<X<XF.*               5 F.#X#X#X#X#X#X#X#X#X#X|.} O   k g.q.;.<.h.m.",
"x C ;.2.,.;.=.U A g +   6 R.+X X+X+XS.*   . . .       4 S. X X X X X X X|. X XT.{ O   d 8.<.1.z.h.i.",
"V U *.%.*.;.L ; ; #     O w ( ( t ( T R i f L L l +   O 8 t ( t ^ t ( t t t t t *     k 5.:.4.n.f.#.",
"=.%.$.%.;.=.k X                     ; U V U z.h.%.$                                   R ;.#.1.j.u.=.",
";.&.Q Q ! ;.g                       = W U %.t.l.t.$                                   k =.;.<.e.0.;.",
">.*.$.W U $.M p a k z a a d a 2 y > i $.:.,.1.h.l.z a a p p p p < > 2 a G j s z j 2 p N ! +.#.8.:.;.",
";.;.;.=.U V U 1.g.w.2.=.-.;.,.U V +.-.;.=.q.b.g.q.g.i.=.$.%.;.;.=.=.=.>.<.s.g.q.:.;.;.%.A V Z #.;.;.",
";.;.;.,.U c U 7.p.7.=.;.;.;.;.D c @.,.;.=.t.m.h.;.e.w.,.&.&.;.;.=.,.;.;.=.7.p.:.=.;.;.&.U U U Z @.=.",
";.;.;.;.U c U :.8.:.;.;.;.;.;.U c U ;.;.=.q.m.h.:.6.5.=.;.;.;.;.;.=.;.;.;.7.8.;.;.;.;.;.;.;.@.b U ;."
};
